<?xml version="1.0" standalone="no"?>
<!DOCTYPE svg PUBLIC "-//W3C//DTD SVG 20010904//EN"
 "http://www.w3.org/TR/2001/REC-SVG-20010904/DTD/svg10.dtd">
<svg version="1.0" xmlns="http://www.w3.org/2000/svg"
 width="1536.000000pt" height="1024.000000pt" viewBox="0 0 1536.000000 1024.000000"
 preserveAspectRatio="xMidYMid meet">

<g transform="translate(0.000000,1024.000000) scale(0.100000,-0.100000)"
fill="#000000" stroke="none">
<path d="M3020 4150 c0 -103 1 -110 20 -110 20 0 21 3 24 64 2 35 24 28 56
-18 19 -28 39 -46 50 -46 25 0 25 3 -5 54 -24 42 -24 42 -5 59 53 45 2 107
-86 107 l-54 0 0 -110z m111 58 c11 -18 -1 -36 -28 -43 -17 -4 -29 -1 -34 7
-11 16 -11 42 -2 52 10 9 56 -2 64 -16z"/>
<path d="M3305 4158 c-22 -57 -41 -106 -43 -110 -2 -5 5 -8 17 -8 12 0 25 11
33 28 11 22 21 28 54 30 39 3 42 1 52 -27 8 -22 17 -31 33 -31 25 0 25 -4 -24
125 -29 75 -39 90 -58 93 -22 2 -28 -7 -64 -100z m79 -4 c7 -29 6 -30 -22 -26
l-30 4 16 40 c16 42 24 38 36 -18z"/>
<path d="M3570 4150 c0 -103 1 -110 20 -110 17 0 20 7 20 45 l0 45 40 0 c29 0
40 4 40 15 0 11 -11 15 -40 15 -38 0 -40 2 -40 30 0 26 4 30 28 30 42 0 72 11
72 26 0 11 -17 14 -70 14 l-70 0 0 -110z"/>
<path d="M3810 4150 c0 -103 1 -110 20 -110 17 0 20 7 20 45 l0 45 40 0 c54 0
56 27 3 32 -33 3 -38 7 -41 31 -3 24 0 27 25 27 43 0 73 11 73 26 0 11 -17 14
-70 14 l-70 0 0 -110z"/>
<path d="M4040 4150 c0 -103 1 -110 20 -110 19 0 20 7 20 110 0 103 -1 110
-20 110 -19 0 -20 -7 -20 -110z"/>
<path d="M4190 4149 c0 -108 1 -110 22 -107 20 3 21 8 20 78 -1 62 0 72 11 57
6 -11 29 -42 50 -70 20 -28 37 -54 37 -59 0 -4 9 -8 20 -8 19 0 20 7 20 110 0
102 -1 110 -20 110 -17 0 -19 -8 -22 -67 l-3 -67 -45 67 c-33 48 -51 66 -67
67 -22 0 -23 -2 -23 -111z"/>
<path d="M4477 4253 c-2 -5 -4 -53 -3 -108 l1 -100 75 0 c62 0 75 3 78 17 3
14 -6 17 -55 20 -54 3 -58 5 -58 28 0 22 5 25 43 28 28 2 42 8 42 17 0 9 -14
15 -42 17 -38 3 -43 6 -43 28 0 20 5 25 30 26 67 2 75 5 75 19 0 12 -14 15
-69 15 -39 0 -72 -3 -74 -7z"/>
<path d="M4736 4198 c2 -35 4 -84 4 -110 0 -35 4 -48 15 -48 11 0 15 18 17 78
l3 77 29 -62 c16 -35 34 -63 41 -63 7 0 25 28 41 63 l29 62 3 -77 c3 -70 5
-78 22 -78 19 0 20 7 20 110 l0 110 -27 0 c-25 -1 -32 -9 -57 -66 l-30 -66
-29 66 c-26 58 -33 66 -57 66 -28 0 -28 0 -24 -62z"/>
<path d="M5080 4151 l0 -108 73 3 c55 2 73 7 75 19 3 12 -7 15 -52 15 -56 0
-56 0 -56 30 0 29 2 30 45 30 33 0 45 4 45 15 0 11 -12 15 -45 15 -43 0 -45 1
-45 30 0 29 1 30 50 30 38 0 50 4 50 15 0 12 -14 15 -70 15 l-70 0 0 -109z"/>
<path d="M5322 4153 c3 -99 5 -108 22 -108 18 0 19 7 17 75 -1 44 1 71 7 65 4
-5 32 -40 61 -77 74 -96 81 -92 81 42 0 107 -1 110 -22 110 -22 0 -23 -4 -21
-65 1 -36 1 -65 -1 -65 -1 0 -26 29 -54 65 -33 41 -60 65 -73 65 -19 0 -20 -6
-17 -107z"/>
<path d="M5600 4240 c0 -16 7 -20 30 -20 l30 0 0 -90 c0 -83 1 -90 20 -90 19
0 20 7 20 90 l0 90 35 0 c28 0 35 4 35 20 0 18 -7 20 -85 20 -78 0 -85 -2 -85
-20z"/>
<path d="M6054 4250 c-64 -26 -84 -115 -38 -169 66 -79 194 -27 194 80 0 45
-56 99 -101 98 -19 0 -44 -4 -55 -9z m69 -31 c70 -32 52 -139 -23 -139 -34 0
-70 40 -70 77 0 24 40 73 59 73 6 0 21 -5 34 -11z"/>
<path d="M6310 4150 c0 -103 1 -110 20 -110 17 0 20 7 20 45 0 33 4 45 15 45
8 0 26 -20 41 -45 19 -34 32 -45 50 -45 30 0 30 4 -1 44 -30 40 -31 48 -5 71
20 18 26 51 12 71 -14 22 -51 34 -101 34 l-51 0 0 -110z m113 63 c12 -7 8 -30
-8 -43 -23 -19 -65 -4 -65 24 0 12 3 26 6 29 7 6 49 0 67 -10z"/>
<path d="M6570 4150 c0 -103 1 -110 20 -110 19 0 20 7 20 110 0 103 -1 110
-20 110 -19 0 -20 -7 -20 -110z"/>
<path d="M6730 4149 l0 -111 78 4 c60 2 77 6 77 18 0 11 -14 16 -57 18 -57 3
-58 4 -58 32 0 29 2 30 45 30 33 0 45 4 45 15 0 11 -12 15 -45 15 -43 0 -45 1
-45 30 l0 30 55 -6 c51 -6 55 -5 55 15 0 20 -5 21 -75 21 l-75 0 0 -111z"/>
<path d="M6982 4153 c3 -99 5 -108 22 -108 18 0 19 7 17 74 -1 44 1 71 7 67 5
-3 31 -37 58 -76 67 -99 78 -93 82 43 3 101 2 107 -17 107 -18 0 -20 -8 -23
-67 l-3 -66 -50 66 c-36 48 -56 67 -73 67 -23 0 -23 -1 -20 -107z"/>
<path d="M7260 4240 c0 -16 7 -20 35 -20 l35 0 0 -90 c0 -83 1 -90 20 -90 19
0 20 7 20 89 l0 90 37 3 c27 2 39 8 41 21 3 15 -6 17 -92 17 -89 0 -96 -1 -96
-20z"/>
<path d="M7576 4252 c-2 -4 -23 -54 -45 -111 -28 -73 -35 -101 -24 -97 8 3 18
6 22 6 4 0 13 11 19 25 18 40 86 32 103 -11 5 -14 17 -24 29 -24 11 0 20 2 20
5 0 3 -15 44 -34 92 -19 49 -37 96 -40 106 -5 17 -41 24 -50 9z m43 -120 c1
-9 -6 -11 -21 -6 -32 9 -31 8 -17 49 l13 36 12 -33 c7 -18 13 -39 13 -46z"/>
<path d="M7800 4150 l0 -110 70 0 c63 0 70 2 70 20 0 17 -7 20 -50 20 l-50 0
0 90 c0 83 -1 90 -20 90 -19 0 -20 -7 -20 -110z"/>
<path d="M8338 4244 c-36 -19 -48 -43 -48 -96 0 -53 19 -83 64 -98 60 -20 142
18 109 51 -9 9 -16 8 -28 -5 -39 -39 -105 -3 -105 57 0 59 59 91 103 57 14
-11 30 -20 36 -20 20 0 11 28 -15 49 -31 24 -78 26 -116 5z"/>
<path d="M8600 4150 c0 -103 1 -110 20 -110 17 0 20 7 20 50 l0 50 45 0 45 0
0 -50 c0 -43 3 -50 20 -50 19 0 20 7 20 110 0 103 -1 110 -20 110 -17 0 -20
-7 -20 -45 l0 -45 -45 0 -45 0 0 45 c0 38 -3 45 -20 45 -19 0 -20 -7 -20 -110z"/>
<path d="M8929 4233 c-77 -199 -75 -193 -51 -193 13 0 24 10 31 30 9 27 14 30
51 30 37 0 42 -3 51 -30 8 -21 17 -30 33 -30 23 0 22 2 -20 108 -33 82 -48
108 -64 110 -14 2 -23 -5 -31 -25z m49 -75 c11 -27 11 -28 -19 -28 -26 0 -30
3 -24 18 4 9 10 25 12 35 6 21 14 14 31 -25z"/>
<path d="M9160 4151 c0 -104 1 -111 20 -111 17 0 20 7 20 45 0 33 4 45 15 45
8 0 26 -20 41 -45 16 -28 33 -45 45 -45 24 0 24 6 -5 53 l-24 38 24 24 c51 51
17 96 -76 103 l-60 4 0 -111z m87 73 c46 -13 28 -64 -23 -64 -20 0 -24 5 -24
28 0 41 7 47 47 36z"/>
<path d="M9420 4150 c0 -103 1 -110 20 -110 18 0 20 7 20 78 l1 77 29 -57 c16
-31 34 -59 39 -63 6 -3 26 25 45 62 l35 68 1 -82 c0 -76 2 -83 20 -83 19 0 20
7 20 110 l0 110 -28 0 c-25 0 -32 -8 -57 -60 -16 -33 -31 -60 -35 -60 -3 0
-16 27 -29 60 -22 54 -27 60 -53 60 l-28 0 0 -110z"/>
<path d="M9760 4160 c0 -55 -1 -103 -2 -107 -5 -15 135 -15 143 -1 16 24 9 28
-46 28 -54 0 -55 0 -55 30 0 28 2 30 40 30 29 0 40 4 40 15 0 11 -11 15 -40
15 -38 0 -40 2 -40 30 0 29 1 30 50 30 38 0 50 4 50 15 0 12 -14 15 -70 15
l-70 0 0 -100z"/>
<path d="M10140 4150 c0 -103 1 -110 20 -110 19 0 20 7 20 110 0 103 -1 110
-20 110 -19 0 -20 -7 -20 -110z"/>
<path d="M10290 4150 l0 -110 25 0 c24 0 25 2 25 71 l0 72 57 -72 c31 -39 62
-71 70 -71 10 0 13 25 13 110 0 103 -1 110 -20 110 -17 0 -19 -8 -22 -71 l-3
-71 -35 49 c-19 26 -41 58 -48 71 -8 13 -22 22 -37 22 l-25 0 0 -110z"/>
<path d="M10570 4240 c0 -16 7 -20 35 -20 l35 0 0 -90 c0 -83 1 -90 20 -90 19
0 20 7 20 90 0 82 2 90 19 90 30 0 51 11 51 26 0 11 -20 14 -90 14 -83 0 -90
-1 -90 -20z"/>
<path d="M10832 4153 l3 -108 73 -3 c67 -3 72 -1 72 18 0 18 -6 20 -53 20
l-54 0 5 30 c4 27 8 30 43 30 28 0 39 4 39 15 0 11 -11 15 -40 15 -38 0 -40 2
-40 30 0 29 1 30 50 30 38 0 50 4 50 15 0 12 -15 15 -75 15 l-76 0 3 -107z"/>
<path d="M11080 4150 c0 -103 1 -110 20 -110 18 0 20 7 20 78 l1 77 29 -62
c16 -35 33 -63 37 -63 5 0 23 28 40 63 l32 62 0 -77 c1 -71 3 -78 21 -78 19 0
20 7 20 110 l0 110 -27 0 c-25 0 -31 -7 -53 -60 -14 -33 -28 -60 -31 -60 -4 0
-18 27 -32 60 -22 51 -30 60 -52 60 l-25 0 0 -110z"/>
<path d="M11420 4150 c0 -103 1 -110 20 -110 17 0 20 7 20 45 l0 45 40 0 c52
0 85 30 75 68 -10 43 -40 62 -101 62 l-54 0 0 -110z m91 70 c27 -15 24 -48 -5
-56 -34 -8 -46 2 -46 37 0 31 16 37 51 19z"/>
<path d="M11724 4250 c-63 -25 -84 -115 -39 -168 49 -59 149 -47 181 21 45 93
-46 186 -142 147z m89 -48 c22 -19 22 -79 0 -104 -24 -27 -68 -23 -92 8 -33
42 -23 97 22 113 25 9 44 5 70 -17z"/>
<path d="M11980 4150 c0 -103 1 -110 20 -110 17 0 20 7 20 45 0 25 4 45 9 45
6 0 24 -20 42 -45 18 -25 40 -45 51 -45 24 0 23 8 -8 54 l-26 38 21 14 c14 10
21 26 21 49 0 46 -29 65 -97 65 l-53 0 0 -110z m91 70 c10 -6 19 -17 19 -25 0
-16 -30 -35 -54 -35 -12 0 -16 10 -16 35 0 37 14 44 51 25z"/>
<path d="M12240 4151 l0 -109 75 0 c67 0 75 2 75 19 0 16 -8 19 -55 19 -54 0
-55 0 -55 30 0 29 2 30 45 30 33 0 45 4 45 14 0 10 -14 16 -42 18 -38 3 -43 6
-43 28 0 24 3 25 53 24 44 0 52 3 52 18 0 16 -9 18 -75 18 l-75 0 0 -109z"/>
<path d="M12490 4150 l0 -110 65 0 c58 0 65 2 65 20 0 17 -7 20 -45 20 l-45 0
0 90 c0 83 -1 90 -20 90 -19 0 -20 -7 -20 -110z"/>
<path d="M8020 4065 c0 -14 5 -25 12 -25 9 0 9 -3 0 -12 -14 -14 -16 -28 -4
-28 13 0 44 60 38 76 -3 7 -15 14 -26 14 -15 0 -20 -7 -20 -25z"/>
</g>
</svg>
