<?xml version="1.0" standalone="no"?>
<!DOCTYPE svg PUBLIC "-//W3C//DTD SVG 20010904//EN"
 "http://www.w3.org/TR/2001/REC-SVG-20010904/DTD/svg10.dtd">
<svg version="1.0" xmlns="http://www.w3.org/2000/svg"
 width="1536.000000pt" height="1024.000000pt" viewBox="0 0 1536.000000 1024.000000"
 preserveAspectRatio="xMidYMid meet">

<g transform="translate(0.000000,1024.000000) scale(0.100000,-0.100000)"
fill="#000000" stroke="none">
<path d="M0 5120 l0 -5120 7680 0 7680 0 0 5120 0 5120 -7680 0 -7680 0 0
-5120z m3145 -1035 c31 -30 32 -59 2 -89 -21 -21 -22 -26 -10 -42 34 -45 35
-54 9 -54 -17 0 -31 10 -46 35 -12 19 -28 35 -36 35 -9 0 -14 -11 -14 -35 0
-28 -4 -35 -20 -35 -19 0 -20 7 -20 105 l0 105 55 0 c46 0 60 -4 80 -25z m276
-72 c19 -53 36 -101 37 -105 2 -4 -7 -8 -21 -8 -16 0 -26 7 -30 20 -4 16 -14
20 -47 20 -33 0 -43 -4 -47 -20 -3 -13 -14 -20 -29 -20 l-23 0 37 105 c34 97
38 105 63 105 24 0 28 -8 60 -97z m279 77 c0 -17 -7 -20 -50 -20 -47 0 -50 -2
-50 -25 0 -23 4 -25 45 -25 38 0 45 -3 45 -20 0 -17 -7 -20 -45 -20 l-45 0 0
-40 c0 -33 -3 -40 -20 -40 -19 0 -20 7 -20 105 l0 105 70 0 c63 0 70 -2 70
-20z m240 0 c0 -17 -7 -20 -50 -20 -47 0 -50 -2 -50 -25 0 -22 4 -25 40 -25
33 0 40 -3 40 -20 0 -17 -7 -20 -40 -20 l-40 0 0 -40 c0 -33 -3 -40 -20 -40
-19 0 -20 7 -20 105 l0 105 70 0 c63 0 70 -2 70 -20z m140 -85 c0 -102 -1
-105 -23 -105 -22 0 -22 3 -22 105 0 103 0 105 22 105 22 0 23 -3 23 -105z
m194 45 c21 -33 41 -62 45 -64 4 -3 5 24 3 60 -4 63 -4 64 22 64 l26 0 0 -105
c0 -102 -1 -105 -22 -105 -17 0 -33 16 -62 60 -21 33 -41 62 -45 64 -4 3 -5
-24 -3 -60 4 -63 4 -64 -22 -64 l-26 0 0 105 c0 102 1 105 23 105 16 0 32 -16
61 -60z m356 40 c0 -17 -7 -20 -50 -20 -47 0 -50 -2 -50 -25 0 -23 4 -25 46
-25 38 0 45 -3 42 -17 -3 -14 -12 -17 -46 -15 -39 3 -42 1 -42 -22 0 -24 3
-26 50 -26 43 0 50 -3 50 -20 0 -18 -7 -20 -75 -20 l-75 0 0 105 0 105 75 0
c68 0 75 -2 75 -20z m173 -24 c10 -24 24 -52 32 -62 13 -18 16 -14 42 43 24
54 32 62 56 63 l27 0 0 -105 0 -105 -26 0 c-26 0 -26 1 -22 64 2 36 1 63 -2
61 -3 -2 -17 -26 -30 -54 -13 -28 -29 -51 -35 -51 -6 0 -22 23 -35 51 -13 28
-27 52 -30 54 -3 2 -4 -25 -2 -61 4 -63 4 -64 -22 -64 l-26 0 0 105 0 105 28
0 c23 0 30 -7 45 -44z m407 24 c0 -17 -7 -20 -50 -20 -47 0 -50 -2 -50 -25 0
-23 4 -25 45 -25 37 0 45 -3 45 -18 0 -15 -8 -18 -45 -16 -41 2 -45 0 -45 -22
0 -22 4 -24 50 -24 43 0 50 -3 50 -20 0 -18 -7 -20 -70 -20 l-70 0 0 105 0
105 70 0 c63 0 70 -2 70 -20z m191 -47 l44 -67 3 67 c3 59 5 67 22 67 19 0 20
-7 20 -106 0 -104 0 -105 -22 -102 -15 2 -37 24 -63 65 -22 34 -42 62 -45 62
-3 1 -3 -28 -2 -64 4 -64 3 -65 -22 -65 l-26 0 0 105 c0 104 0 105 24 105 18
0 34 -15 67 -67z m359 47 c0 -16 -7 -20 -35 -20 l-35 0 0 -85 c0 -78 -2 -85
-20 -85 -18 0 -20 7 -20 85 l0 85 -35 0 c-28 0 -35 4 -35 20 0 19 7 20 90 20
83 0 90 -1 90 -20z m409 -6 c61 -51 48 -150 -25 -180 -81 -34 -166 33 -150
118 15 84 110 117 175 62z m275 5 c34 -27 35 -70 2 -96 -21 -17 -22 -21 -9
-39 34 -45 35 -54 9 -54 -17 0 -30 10 -45 35 -11 19 -27 35 -36 35 -11 0 -15
-10 -15 -35 0 -28 -4 -35 -20 -35 -19 0 -20 7 -20 105 l0 105 54 0 c39 0 60
-6 80 -21z m176 -84 c0 -98 -1 -105 -20 -105 -19 0 -20 7 -20 105 0 98 1 105
20 105 19 0 20 -7 20 -105z m260 85 c0 -17 -7 -20 -50 -20 -47 0 -50 -2 -50
-25 0 -23 4 -25 46 -25 38 0 45 -3 42 -17 -3 -14 -12 -17 -46 -15 -39 3 -42 2
-42 -22 0 -24 3 -26 50 -26 43 0 50 -3 50 -20 0 -18 -7 -20 -70 -20 l-70 0 0
105 0 105 70 0 c63 0 70 -2 70 -20z m191 -47 l44 -67 3 67 c3 59 5 67 22 67
19 0 20 -7 20 -105 0 -98 -1 -105 -20 -105 -13 0 -34 22 -65 67 l-45 68 0 -68
c0 -63 -1 -67 -22 -67 -22 0 -23 3 -23 105 0 101 1 105 21 105 16 0 34 -19 65
-67z m365 50 c-2 -12 -13 -19 -34 -21 l-32 -3 0 -85 c0 -81 -1 -84 -23 -84
-23 0 -23 2 -22 85 l2 85 -34 0 c-26 0 -33 4 -33 20 0 19 7 20 89 20 79 0 89
-2 87 -17z m222 -70 c17 -49 34 -96 37 -105 6 -14 2 -18 -18 -18 -16 0 -26 7
-30 20 -4 16 -14 20 -47 20 -33 0 -43 -4 -47 -20 -3 -13 -14 -20 -29 -20 l-23
0 37 105 c34 97 39 105 63 105 24 0 29 -7 57 -87z m182 2 l0 -85 40 0 c33 0
40 -3 40 -20 0 -18 -7 -20 -65 -20 l-65 0 0 105 0 105 25 0 c25 0 25 -1 25
-85z m620 67 c20 -16 21 -19 6 -31 -12 -11 -19 -11 -30 -2 -8 7 -29 11 -48 9
-63 -6 -77 -88 -22 -125 25 -16 28 -16 56 0 23 13 34 15 44 6 36 -30 -57 -67
-111 -45 -44 19 -65 52 -65 104 0 62 40 102 103 102 28 0 53 -7 67 -18z m160
-27 l0 -45 45 0 45 0 0 45 c0 41 2 45 25 45 l25 0 0 -105 0 -105 -25 0 c-23 0
-25 4 -25 43 l0 42 -42 -1 c-43 -1 -43 -1 -46 -43 -3 -33 -7 -41 -23 -41 -18
0 -19 8 -19 105 0 98 1 105 20 105 17 0 20 -7 20 -45z m374 3 c8 -24 25 -68
36 -98 25 -68 25 -70 -1 -70 -12 0 -23 8 -26 20 -4 16 -14 20 -48 20 -34 0
-44 -4 -48 -20 -5 -20 -47 -29 -47 -11 0 5 14 47 30 93 17 46 33 89 35 96 2 6
15 12 29 12 20 0 27 -8 40 -42z m292 16 c29 -29 27 -67 -6 -95 -18 -16 -18
-17 6 -53 l25 -36 -26 0 c-17 0 -31 10 -47 35 -30 45 -48 45 -48 0 0 -28 -4
-35 -20 -35 -19 0 -20 7 -20 105 l0 105 55 0 c47 0 60 -4 81 -26z m205 -36
l32 -63 31 63 c24 49 35 62 53 62 23 0 23 -2 23 -105 0 -98 -1 -105 -20 -105
-18 0 -20 7 -20 67 l0 67 -27 -54 c-16 -30 -34 -56 -41 -58 -7 -2 -24 20 -40
55 l-27 58 -3 -67 c-3 -60 -5 -68 -22 -68 -19 0 -20 7 -20 105 l0 105 25 0
c20 0 30 -11 56 -62z m399 42 c0 -17 -7 -20 -50 -20 -47 0 -50 -2 -50 -25 0
-23 4 -25 46 -25 38 0 45 -3 42 -17 -3 -14 -12 -18 -46 -16 -39 2 -42 0 -42
-22 0 -23 4 -25 50 -25 43 0 50 -3 50 -20 0 -18 -7 -20 -73 -20 l-73 0 0 105
1 105 72 0 c66 0 73 -2 73 -20z m290 -85 c0 -98 -1 -105 -20 -105 -19 0 -20 7
-20 105 0 98 1 105 20 105 19 0 20 -7 20 -105z m201 38 l44 -67 3 67 c3 59 5
67 22 67 19 0 20 -7 20 -105 0 -98 -1 -105 -20 -105 -13 0 -34 22 -65 67 l-45
68 0 -68 c0 -60 -2 -67 -20 -67 -19 0 -20 7 -20 105 0 96 2 105 19 105 12 0
34 -24 62 -67z m359 47 c0 -16 -7 -20 -35 -20 l-35 0 0 -85 c0 -78 -2 -85 -20
-85 -18 0 -20 7 -20 85 l0 85 -35 0 c-28 0 -35 4 -35 20 0 19 7 20 90 20 83 0
90 -1 90 -20z m240 0 c0 -17 -7 -20 -50 -20 -47 0 -50 -2 -50 -25 0 -23 4 -25
46 -25 38 0 45 -3 42 -17 -2 -14 -13 -17 -46 -16 -38 1 -42 -1 -42 -23 0 -22
4 -24 50 -24 43 0 50 -3 50 -20 0 -18 -7 -20 -72 -20 l-73 0 0 105 0 105 73 0
c65 0 72 -2 72 -20z m177 -40 c14 -33 29 -60 33 -60 4 0 19 27 34 60 22 50 31
60 52 60 24 0 24 0 24 -105 0 -98 -1 -105 -20 -105 -18 0 -20 7 -20 68 l-1 67
-30 -57 c-16 -32 -34 -58 -39 -58 -5 0 -23 26 -39 58 l-30 57 -1 -67 c0 -61
-2 -68 -20 -68 -19 0 -20 7 -20 105 l0 105 25 0 c22 0 30 -9 52 -60z m384 42
c28 -24 30 -75 3 -103 -12 -11 -35 -20 -57 -21 -35 -1 -37 -3 -37 -35 0 -26
-4 -33 -20 -33 -19 0 -20 7 -20 105 l0 105 54 0 c37 0 61 -6 77 -18z m300 -11
c23 -24 29 -38 29 -73 0 -52 -21 -85 -66 -104 -84 -35 -166 42 -142 133 20 75
122 100 179 44z m269 9 c26 -26 26 -74 -1 -101 l-20 -20 26 -35 26 -34 -28 0
c-22 0 -33 8 -47 35 -11 19 -25 35 -33 35 -8 0 -13 -12 -13 -35 0 -30 -3 -35
-23 -35 -22 0 -23 2 -23 105 l0 105 58 0 c45 0 63 -5 78 -20z m270 0 c0 -17
-7 -20 -48 -20 -44 0 -49 -2 -47 -22 1 -19 9 -24 46 -28 62 -7 61 -33 -1 -34
-39 -1 -45 -4 -48 -23 -3 -21 0 -23 46 -23 41 0 51 -3 55 -20 5 -19 0 -20 -69
-20 l-74 0 0 105 0 105 70 0 c63 0 70 -2 70 -20z m150 -65 l0 -85 45 0 c38 0
45 -3 45 -20 0 -18 -7 -20 -65 -20 l-65 0 0 105 c0 98 1 105 20 105 18 0 20
-7 20 -85z m-4470 -108 c0 -25 -26 -67 -41 -67 -13 0 -11 27 4 34 10 5 10 7 0
12 -7 3 -13 14 -13 25 0 14 7 19 25 19 19 0 25 -5 25 -23z"/>
<path d="M3050 4040 c0 -26 3 -30 29 -30 16 0 34 7 41 15 18 21 -4 45 -41 45
-26 0 -29 -4 -29 -30z"/>
<path d="M3347 4033 c-3 -16 -9 -36 -12 -45 -5 -14 -1 -17 25 -16 24 1 30 5
25 17 -4 9 -9 28 -12 44 -3 15 -9 27 -13 27 -4 0 -10 -12 -13 -27z"/>
<path d="M6056 4055 c-55 -56 2 -146 72 -113 14 7 29 24 32 38 7 28 -5 71 -23
82 -20 13 -65 9 -81 -7z"/>
<path d="M6350 4040 c0 -27 3 -30 34 -30 21 0 36 6 40 15 10 28 -5 45 -40 45
-31 0 -34 -3 -34 -30z"/>
<path d="M7592 4040 c-25 -64 -24 -67 8 -67 27 0 29 3 23 26 -3 14 -9 35 -13
46 -8 19 -8 19 -18 -5z"/>
<path d="M8942 4031 c-17 -49 -15 -59 13 -57 28 1 31 15 11 61 l-12 30 -12
-34z"/>
<path d="M9190 4040 c0 -29 2 -31 33 -28 27 2 32 7 32 28 0 21 -5 26 -32 28
-31 3 -33 1 -33 -28z"/>
<path d="M11450 4042 c0 -34 22 -47 51 -31 33 17 21 53 -18 57 -31 3 -33 1
-33 -26z"/>
<path d="M11716 4051 c-26 -28 -18 -79 17 -105 26 -19 30 -19 55 -5 63 35 50
121 -19 127 -25 2 -40 -3 -53 -17z"/>
<path d="M12020 4040 c0 -29 2 -31 33 -28 27 2 32 7 32 28 0 21 -5 26 -32 28
-31 3 -33 1 -33 -28z"/>
</g>
</svg>
